<?xml version="1.0" encoding="utf-8"?>
<svg id="tire" xmlns="http://www.w3.org/2000/svg" viewBox="0 0 24 24">
  <defs>
    <style>
      .cls-1 {
        fill: #000;
        stroke-width: 0px;
      }
    </style>
  </defs>
  <path class="cls-1" d="M12,6.5c-3.03,0-5.5,2.47-5.5,5.5s2.47,5.5,5.5,5.5,5.5-2.47,5.5-5.5-2.47-5.5-5.5-5.5ZM13.54,7.79l-.71,1.06c-.38.57-1.29.57-1.66,0l-.71-1.06c.48-.18,1-.29,1.54-.29s1.06.11,1.54.29ZM7.79,10.46l1.06.71c.28.19.45.49.45.83s-.16.64-.45.83l-1.06.71c-.18-.48-.29-1-.29-1.54s.11-1.06.29-1.54ZM10.46,16.21l.71-1.06c.38-.57,1.29-.57,1.66,0l.71,1.06c-.48.18-1,.29-1.54.29s-1.06-.11-1.54-.29ZM14.44,15.77s-.01-.03-.02-.05l-.75-1.13c-.37-.56-.99-.89-1.66-.89s-1.29.33-1.66.89l-.75,1.13s-.01.03-.02.05c-.54-.35-.99-.8-1.34-1.34.02,0,.04,0,.05-.02l1.13-.75c.56-.37.89-.99.89-1.66s-.33-1.29-.89-1.66l-1.13-.75s-.03-.01-.05-.02c.35-.53.8-.99,1.34-1.34,0,.02.01.03.02.05l.75,1.13c.37.56.99.89,1.66.89s1.29-.33,1.66-.89l.75-1.13s.01-.03.02-.05c.53.35.99.8,1.34,1.34-.02,0-.03.01-.05.02l-1.13.75c-.56.37-.89.99-.89,1.66s.33,1.29.89,1.66l1.13.75s.04,0,.05.02c-.35.54-.8.99-1.34,1.34ZM16.21,13.54l-1.06-.71c-.28-.19-.45-.49-.45-.83s.16-.64.45-.83l1.06-.71c.18.48.29,1,.29,1.54s-.11,1.06-.29,1.54Z" style="fill: rgb(249, 157, 26);"/>
  <path class="cls-1" d="M18.72,5.28c-1.79-1.79-4.18-2.78-6.72-2.78s-4.92.99-6.72,2.78c-3.7,3.7-3.7,9.73,0,13.43,1.79,1.79,4.18,2.78,6.72,2.78s4.92-.99,6.72-2.78c3.7-3.7,3.7-9.73,0-13.43ZM18.01,18.01c-1.61,1.61-3.74,2.49-6.01,2.49s-4.41-.88-6.01-2.49c-3.31-3.31-3.31-8.71,0-12.02,1.61-1.61,3.74-2.49,6.01-2.49s4.41.88,6.01,2.49c3.31,3.31,3.31,8.71,0,12.02Z" style="fill: rgb(198, 198, 198);"/>
</svg>