<?xml version="1.0" encoding="utf-8"?>
<svg id="good_car" data-name="good car" xmlns="http://www.w3.org/2000/svg" viewBox="0 0 24 24">
  <defs>
    <style>
      .cls-1 {
        fill: #000;
        stroke-width: 0px;
      }
    </style>
  </defs>
  <path class="cls-1" d="M18.69,13.03l-2.29-.46c-.06-.01-.12-.05-.15-.1l-.52-.78c-.91-1.37-2.44-2.19-4.09-2.19-.28,0-.5.22-.5.5s.22.5.5.5c1.31,0,2.53.65,3.26,1.74l.17.26h-5.07c-.28,0-.5.22-.5.5s.22.5.5.5h6s.04,0,.05-.01c.05.02.09.05.15.06l2.29.46c1.16.23,2.01,1.26,2.01,2.45,0,.56-.45,1.01-1,1.03,0-1.1-.9-1.99-2-1.99s-2,.9-2,2h-7c0-1.1-.9-2-2-2s-1.99.89-2,1.99c-.55-.02-1-.47-1-1.03v-1.34c0-.67.14-1.31.42-1.91.11-.25,0-.55-.25-.66-.25-.12-.55,0-.66.25-.33.74-.5,1.52-.5,2.33v1.34c0,1.12.92,2.04,2.04,2.04h.24c.35.59.98,1,1.72,1s1.38-.41,1.72-1h7.56c.35.59.98,1,1.72,1s1.38-.41,1.72-1h.24c1.12,0,2.04-.92,2.04-2.04,0-1.66-1.18-3.11-2.81-3.43ZM6.5,18.5c-.55,0-1-.45-1-1s.45-1,1-1,1,.45,1,1-.45,1-1,1ZM17.5,18.5c-.55,0-1-.45-1-1s.45-1,1-1,1,.45,1,1-.45,1-1,1Z" style="fill: rgb(198, 198, 198);"/>
  <path class="cls-1" d="M6.5,12.5c2.21,0,4-1.79,4-4s-1.79-4-4-4-4,1.79-4,4,1.79,4,4,4ZM6.5,5.5c1.65,0,3,1.35,3,3s-1.35,3-3,3-3-1.35-3-3,1.35-3,3-3Z" style="fill: rgb(249, 157, 26);"/>
  <path class="cls-1" d="M5.65,9.85c.1.1.23.15.35.15s.26-.05.35-.15l2-2c.2-.2.2-.51,0-.71s-.51-.2-.71,0l-1.65,1.65-.65-.65c-.2-.2-.51-.2-.71,0s-.2.51,0,.71l1,1Z" style="fill: rgb(249, 157, 26);"/>
</svg>