<?xml version="1.0" encoding="utf-8"?>
<svg id="review-star" xmlns="http://www.w3.org/2000/svg" viewBox="0 0 24 24">
  <defs>
    <style>
      .cls-1 {
        fill: #000;
        stroke-width: 0px;
      }
    </style>
  </defs>
  <path class="cls-1" d="M21,10.5c-.28,0-.5.22-.5.5v3c0,1.38-1.12,2.5-2.5,2.5h-7.67c-.32,0-.64.11-.9.3l-2.93,2.2v-2c0-.28-.22-.5-.5-.5-1.38,0-2.5-1.12-2.5-2.5v-5c0-1.38,1.12-2.5,2.5-2.5h6c.28,0,.5-.22.5-.5s-.22-.5-.5-.5h-6c-1.93,0-3.5,1.57-3.5,3.5v5c0,1.76,1.31,3.22,3,3.46v2.54c0,.19.11.36.28.45.07.04.15.05.22.05.11,0,.21-.03.3-.1l3.73-2.8c.09-.06.19-.1.3-.1h7.67c1.93,0,3.5-1.57,3.5-3.5v-3c0-.28-.22-.5-.5-.5Z" style="fill: rgb(198, 198, 198);"/>
  <path class="cls-1" d="M14.02,6.63l.98.71c.05.04.07.11.05.17l-.37,1.15c-.16.48,0,.99.42,1.29.41.3.94.3,1.35,0l.98-.71c.05-.04.13-.04.18,0l.98.71c.21.15.44.22.68.22s.47-.07.68-.22c.41-.3.57-.8.42-1.29l-.37-1.15c-.02-.06,0-.13.05-.17l.98-.71c.41-.3.57-.8.42-1.29-.16-.48-.59-.79-1.09-.79h-1.21c-.07,0-.12-.04-.14-.1l-.37-1.15c-.16-.48-.59-.79-1.09-.79s-.94.31-1.09.79l-.37,1.15c-.02.06-.08.1-.14.1h-1.21c-.51,0-.94.31-1.09.79-.16.48,0,.99.42,1.29ZM14.56,5.66s.05-.1.14-.1h1.21c.5,0,.94-.32,1.09-.79l.37-1.15c.06-.17.23-.17.29,0l.37,1.15c.15.48.59.79,1.09.79h1.21c.09,0,.13.06.14.1.02.05.02.12-.05.17l-.98.71c-.4.29-.57.81-.42,1.29l.37,1.15c.03.09-.01.14-.05.17-.04.03-.1.05-.18,0l-.98-.71c-.2-.15-.44-.22-.68-.22s-.47.07-.68.22l-.98.71c-.07.05-.14.03-.18,0s-.08-.08-.05-.17l.37-1.15c.15-.48-.01-.99-.42-1.29l-.98-.71c-.07-.05-.07-.12-.05-.17Z" style="fill: rgb(249, 157, 26);"/>
  <path class="cls-1" d="M7,10.5h5c.28,0,.5-.22.5-.5s-.22-.5-.5-.5h-5c-.28,0-.5.22-.5.5s.22.5.5.5Z" style="fill: rgb(198, 198, 198);"/>
  <path class="cls-1" d="M7,13.5h10c.28,0,.5-.22.5-.5s-.22-.5-.5-.5H7c-.28,0-.5.22-.5.5s.22.5.5.5Z" style="fill: rgb(198, 198, 198);"/>
</svg>