<?xml version="1.0" encoding="utf-8"?>
<svg id="wrenching" xmlns="http://www.w3.org/2000/svg" viewBox="0 0 24 24">
  <defs>
    <style>
      .cls-1 {
        fill: #000;
        stroke-width: 0px;
      }
    </style>
  </defs>
  <path class="cls-1" d="M20.99,12.98l-1.11-.49v-.98l1.11-.49c.23-.1.34-.35.28-.59l-.46-1.71c-.06-.24-.29-.39-.54-.37l-1.2.13-.49-.85.71-.98c.14-.2.12-.47-.05-.65l-1.25-1.25c-.17-.17-.45-.2-.65-.05l-.98.71-.85-.49.13-1.2c.03-.24-.13-.47-.37-.54l-1.71-.46c-.24-.06-.49.06-.59.28l-.49,1.11h-.98l-.49-1.11c-.1-.22-.35-.34-.59-.28l-1.71.46c-.24.06-.39.29-.37.54l.13,1.2-.85.49-.98-.71c-.2-.15-.47-.12-.65.05l-1.25,1.25c-.17.17-.2.45-.05.65l.71.98-.49.85-1.2-.13c-.24-.03-.47.13-.54.37l-.46,1.71c-.06.24.06.49.28.59l1.11.49v.98l-1.11.49c-.23.1-.34.35-.28.59l.46,1.71c.06.24.29.39.54.37l1.2-.13.49.85-.71.98c-.14.2-.12.47.05.65l1.25,1.25c.17.17.45.2.65.05l.98-.71.85.49-.13,1.2c-.03.24.13.47.37.54l1.71.46c.24.06.49-.06.59-.28l.49-1.11h.98l.49,1.11c.08.18.26.3.46.3.04,0,.09,0,.13-.02l1.71-.46c.24-.06.39-.29.37-.54l-.16-1.53c-.03-.28-.29-.47-.55-.44-.28.03-.47.28-.44.55l.12,1.1-.88.24-.45-1.01c-.08-.18-.26-.3-.46-.3h-1.63c-.2,0-.38.12-.46.3l-.45,1.01-.88-.24.12-1.1c.02-.2-.08-.39-.25-.49l-1.42-.82c-.17-.1-.38-.09-.54.03l-.9.65-.64-.64.65-.9c.12-.16.13-.37.03-.54l-.82-1.42c-.1-.17-.29-.27-.49-.25l-1.1.12-.24-.88,1.01-.45c.18-.08.3-.26.3-.46v-1.63c0-.2-.12-.38-.3-.46l-1.01-.45.24-.88,1.1.12c.19.02.39-.08.49-.25l.82-1.42c.1-.17.09-.38-.03-.54l-.65-.9.64-.64.9.65c.16.12.37.13.54.03l1.42-.82c.17-.1.27-.29.25-.49l-.12-1.1.88-.24.45,1.01c.08.18.26.3.46.3h1.63c.2,0,.38-.12.46-.3l.45-1.01.88.24-.12,1.1c-.02.2.08.39.25.49l1.42.82c.17.1.38.09.54-.03l.9-.65.64.64-.65.9c-.12.16-.13.37-.03.54l.82,1.42c.1.17.29.26.49.25l1.1-.12.24.88-1.01.45c-.18.08-.3.26-.3.46v1.63c0,.2.12.38.3.46l1.01.45-.24.88-1.1-.12c-.26-.03-.52.17-.55.44-.03.27.17.52.44.55l1.53.16c.24.02.47-.13.54-.37l.46-1.71c.06-.24-.06-.49-.28-.59Z" style="fill: rgb(198, 198, 198);"/>
  <path class="cls-1" d="M12,8.5c1.25,0,2.41.67,3.03,1.75.14.24.45.32.68.18.24-.14.32-.44.18-.68-.8-1.39-2.3-2.25-3.9-2.25-2.48,0-4.5,2.02-4.5,4.5,0,1.6.86,3.09,2.25,3.9.08.05.17.07.25.07.17,0,.34-.09.43-.25.14-.24.06-.54-.18-.68-1.08-.62-1.75-1.79-1.75-3.03,0-1.93,1.57-3.5,3.5-3.5Z" style="fill: rgb(249, 157, 26);"/>
  <path class="cls-1" d="M17.81,14.98c.24-1.15-.11-2.33-.94-3.15s-2-1.17-3.14-.94c-.36.08-.66.34-.76.71-.11.37-.01.77.26,1.04l1.42,1.42c.06.06.09.13.09.21s-.03.16-.09.21c-.12.12-.31.12-.43,0l-1.42-1.42c-.27-.27-.67-.37-1.04-.26-.36.11-.63.4-.7.76-.24,1.14.12,2.31.94,3.14s2.01,1.18,3.16.94c.03,0,.05,0,.06,0l2,2.21c.35.35.81.54,1.3.54s.95-.19,1.3-.54c.72-.72.72-1.88.02-2.58l-2.02-2.29ZM19.11,19.14c-.32.32-.89.3-1.17.02l-2-2.21-.02-.02c-.19-.19-.46-.3-.74-.3-.08,0-.16,0-.24.03-.82.17-1.65-.08-2.24-.66s-.83-1.42-.61-2.23l1.42,1.42c.51.51,1.33.51,1.84,0,.51-.51.51-1.34,0-1.84l-1.42-1.48c.81-.16,1.64.08,2.23.67s.84,1.43.66,2.24c-.08.36.03.72.26.96l2.02,2.23c.16.16.25.37.25.59s-.09.44-.25.59Z" style="fill: rgb(249, 157, 26);"/>
</svg>