<?xml version="1.0" encoding="utf-8"?>
<svg id="spotfree_rinse" data-name="spotfree rinse" xmlns="http://www.w3.org/2000/svg" viewBox="0 0 24 24">
  <defs>
    <style>
      .cls-1 {
        fill: #000;
        stroke-width: 0px;
      }
    </style>
  </defs>
  <path class="cls-1" d="M 11.5 10.603 L 11.5 9.603 C 11.5 9.323 11.72 9.103 12 9.103 C 12.28 9.103 12.5 9.323 12.5 9.603 L 12.5 10.603 C 12.5 10.883 12.28 11.103 12 11.103 C 11.72 11.103 11.5 10.883 11.5 10.603 Z" style="fill: rgb(249, 157, 26);"/>
  <path class="cls-1" d="M 14.65 11.953 C 14.45 11.753 14.45 11.443 14.65 11.243 L 15.36 10.533 C 15.46 10.433 15.59 10.383 15.71 10.383 C 15.83 10.383 15.97 10.433 16.06 10.533 C 16.26 10.733 16.26 11.043 16.06 11.243 L 15.35 11.953 C 15.15 12.153 14.84 12.153 14.64 11.953 L 14.65 11.953 Z" style="fill: rgb(249, 157, 26);"/>
  <path class="cls-1" d="M 8.65 11.953 L 7.94 11.243 C 7.74 11.043 7.74 10.733 7.94 10.533 C 8.04 10.433 8.17 10.383 8.29 10.383 C 8.41 10.383 8.55 10.433 8.64 10.533 L 9.35 11.243 C 9.55 11.443 9.55 11.753 9.35 11.953 C 9.15 12.153 8.84 12.153 8.64 11.953 L 8.65 11.953 Z" style="fill: rgb(249, 157, 26);"/>
  <path d="M 15.013 13.362 L 17.303 12.902 C 17.363 12.892 17.423 12.852 17.453 12.802 L 17.973 12.022 C 18.883 10.652 20.413 9.832 22.063 9.832 L 23.15 9.832 L 23.15 10.832 L 22.063 10.832 C 20.753 10.832 19.533 11.482 18.803 12.572 L 18.633 12.832 L 23.15 12.832 L 23.15 13.832 L 17.703 13.832 C 17.703 13.832 17.663 13.832 17.643 13.822 C 17.593 13.842 17.553 13.872 17.493 13.882 L 15.203 14.342 C 14.043 14.572 13.193 15.602 13.193 16.792 C 13.193 17.352 13.643 17.802 14.193 17.822 L 14.203 17.822 C 14.203 16.722 15.103 15.832 16.203 15.832 C 17.303 15.832 18.203 16.732 18.203 17.832 L 23.15 17.832 L 23.15 18.832 L 17.923 18.832 C 17.573 19.422 16.943 19.832 16.203 19.832 C 15.463 19.832 14.833 19.422 14.483 18.832 L 14.243 18.832 C 13.123 18.832 12.203 17.912 12.203 16.792 C 12.203 15.132 13.383 13.682 15.013 13.362 Z M 16.203 18.832 C 16.753 18.832 17.203 18.382 17.203 17.832 C 17.203 17.282 16.753 16.832 16.203 16.832 C 15.653 16.832 15.203 17.282 15.203 17.832 C 15.203 18.382 15.653 18.832 16.203 18.832 Z" style="stroke-opacity: 0; stroke-width: 0px; stroke: rgb(198, 198, 198); fill: rgb(198, 198, 198); transform-origin: 17.676px 14.832px;"/>
  <path d="M 3.674 16.302 L 5.964 16.762 C 6.024 16.772 6.084 16.812 6.114 16.862 L 6.634 17.642 C 7.544 19.012 9.074 19.832 10.724 19.832 L 11.811 19.832 L 11.811 18.832 L 10.724 18.832 C 9.414 18.832 8.194 18.182 7.464 17.092 L 7.294 16.832 L 11.811 16.832 L 11.811 15.832 L 6.364 15.832 C 6.364 15.832 6.324 15.832 6.304 15.842 C 6.254 15.822 6.214 15.792 6.154 15.782 L 3.864 15.322 C 2.704 15.092 1.854 14.062 1.854 12.872 C 1.854 12.312 2.304 11.862 2.854 11.842 L 2.864 11.842 C 2.864 12.942 3.764 13.832 4.864 13.832 C 5.964 13.832 6.864 12.932 6.864 11.832 L 11.811 11.832 L 11.811 10.832 L 6.584 10.832 C 6.234 10.242 5.604 9.832 4.864 9.832 C 4.124 9.832 3.494 10.242 3.144 10.832 L 2.904 10.832 C 1.784 10.832 0.864 11.752 0.864 12.872 C 0.864 14.532 2.044 15.982 3.674 16.302 Z M 4.864 10.832 C 5.414 10.832 5.864 11.282 5.864 11.832 C 5.864 12.382 5.414 12.832 4.864 12.832 C 4.314 12.832 3.864 12.382 3.864 11.832 C 3.864 11.282 4.314 10.832 4.864 10.832 Z" style="stroke-opacity: 0; stroke-width: 0px; stroke: rgb(198, 198, 198); fill: rgb(198, 198, 198); transform-origin: 6.337px 14.832px;" transform="matrix(-1, 0, 0, -1, 0.000001, 0.000001)"/>
</svg>