<?xml version="1.0" encoding="utf-8"?>
<svg id="broken_engine" data-name="broken engine" xmlns="http://www.w3.org/2000/svg" viewBox="0 0 24 24">
  <defs>
    <style>
      .cls-1 {
        fill: #000;
        stroke-width: 0px;
      }
    </style>
  </defs>
  <path class="cls-1" d="M16.41,14.23l-3.82-.64.9-4.49c.05-.27-.12-.53-.39-.59-.28-.06-.53.12-.59.39l-.76,3.82-.74-1.11c-.46-.7-1.24-1.11-2.08-1.11h-3.81c-.81,0-1.59.17-2.33.5-.25.11-.36.41-.25.66.11.25.41.36.66.25.61-.28,1.25-.42,1.91-.42h3.81c.5,0,.97.25,1.25.67l.89,1.33h-5.07c-.28,0-.5.22-.5.5s.22.5.5.5h5.96l4.29.71c.73.12,1.25.74,1.25,1.48v.76c0,.56-.45,1.01-1,1.03,0-1.1-.9-1.99-2-1.99s-2,.9-2,2h-7c0-1.1-.9-2-2-2-.23,0-.45.04-.67.11-.26.09-.4.38-.31.64.09.26.38.4.64.31.63-.22,1.33.28,1.33.94s-.71,1.16-1.33.94c-.26-.09-.55.05-.64.31-.09.26.05.55.31.64.21.08.44.11.67.11.74,0,1.37-.41,1.72-1h7.56c.35.59.98,1,1.72,1s1.37-.41,1.72-1h.24c1.12,0,2.04-.92,2.04-2.04v-.76c0-1.23-.88-2.26-2.09-2.47ZM14.5,19.5c-.55,0-1-.45-1-1s.45-1,1-1,1,.45,1,1-.45,1-1,1Z" style="fill: rgb(198, 198, 198);"/>
  <path class="cls-1" d="M14.96,10.04s.03,0,.04,0c.26,0,.48-.2.5-.46,0-.13.06-.38.26-.61.21-.24.48-.3.58-.32.16-.03.3-.13.37-.28s.06-.32-.01-.46c-.22-.4-.22-.89,0-1.27.25-.42.74-.67,1.24-.6.28.03.52-.17.55-.44.03-.27-.17-.52-.44-.55-.89-.1-1.76.33-2.21,1.08-.31.52-.39,1.15-.24,1.73-.19.1-.4.24-.59.45-.4.44-.49.94-.51,1.2-.02.28.19.52.46.54Z" style="fill: rgb(249, 157, 26);"/>
  <path class="cls-1" d="M19.17,9.2c-.1.09-.16.23-.16.37,0,.07-.01.66-.48,1.01-.27.2-.56.23-.73.23,0,0-.01,0-.02,0-.27,0-.5.22-.5.49,0,.28.22.5.49.51h.03c.48,0,.95-.15,1.32-.43.54-.4.75-.94.83-1.34.55-.1,1.04-.43,1.32-.91.39-.69.19-1.39.12-1.59-.1-.26-.38-.39-.64-.3-.26.1-.39.38-.3.64.02.07.14.42-.05.75-.16.29-.51.46-.86.43-.14-.01-.27.04-.38.13Z" style="fill: rgb(249, 157, 26);"/>
  <path class="cls-1" d="M21.06,10.73c-.29-.03-.52.17-.55.44,0,.07-.09.65-.59.95-.3.18-.61.17-.76.15-.28-.04-.52.16-.56.43-.03.27.16.52.43.56.08,0,.17.02.28.02.3,0,.71-.06,1.11-.3.91-.53,1.06-1.51,1.08-1.7.03-.27-.17-.52-.44-.55Z" style="fill: rgb(249, 157, 26);"/>
  <path class="cls-1" d="M17.94,7.18c-.36.48-.29,1.01-.26,1.16.05.24.26.4.49.4.03,0,.07,0,.1-.01.27-.06.44-.32.39-.59,0-.02-.04-.2.07-.35.13-.18.37-.17.4-.17.27.01.51-.18.54-.45.02-.27-.18-.52-.45-.54-.08,0-.81-.06-1.28.56Z" style="fill: rgb(249, 157, 26);"/>
  <path class="cls-1" d="M16.99,9.96c-.05-.27-.32-.44-.59-.39-.27.06-.45.32-.39.59,0,.03.04.21-.07.35-.13.18-.38.16-.4.17-.29-.02-.51.18-.54.45-.02.27.18.52.45.54.01,0,.05,0,.1,0,.23,0,.8-.06,1.18-.56.36-.47.29-1,.26-1.16Z" style="fill: rgb(249, 157, 26);"/>
  <path class="cls-1" d="M19.72,6.38c.28,0,.5-.22.5-.5s-.22-.5-.5-.5h-.01c-.28,0-.49.22-.49.5s.23.5.5.5Z" style="fill: rgb(249, 157, 26);"/>
  <path class="cls-1" d="M14.34,13.07c.28,0,.5-.22.5-.5s-.22-.5-.5-.5h-.01c-.28,0-.49.22-.49.5s.23.5.5.5Z" style="fill: rgb(249, 157, 26);"/>
  <path class="cls-1" d="M16.21,12.74c-.28,0-.49.22-.49.5s.23.5.5.5.5-.22.5-.5-.22-.5-.5-.5h-.01Z" style="fill: rgb(249, 157, 26);"/>
</svg>