<?xml version="1.0" encoding="utf-8"?>
<svg id="properness_status" data-name="properness status" xmlns="http://www.w3.org/2000/svg" viewBox="0 0 24 24">
  <defs>
    <style>
      .cls-1 {
        fill: #000;
        stroke-width: 0px;
      }
    </style>
  </defs>
  <path class="cls-1" d="M21,15.5c-.28,0-.5.22-.5.5v.37c0,.73-.51,1.35-1.21,1.48-1.25.23-2.52.39-3.79.5v-1.34c0-.83-.67-1.5-1.5-1.5h-4c-.83,0-1.5.67-1.5,1.5v1.34c-1.27-.11-2.53-.28-3.79-.5-.7-.13-1.21-.75-1.21-1.48v-.67l2.34.78c.05.02.11.03.16.03.21,0,.4-.13.47-.34.09-.26-.05-.55-.32-.63l-2.66-.89v-.4c0-.57.32-1.09.83-1.34l.15-.08c.18-.09.34-.2.48-.32.01,0,.02,0,.03,0h3c.28,0,.5-.22.5-.5s-.22-.5-.5-.5h-2.32s.04-.08.06-.13l1.28-3.85c.21-.61.78-1.03,1.42-1.03h.56c.28,0,.5-.22.5-.5s-.22-.5-.5-.5h-.56c-1.08,0-2.03.69-2.37,1.71l-1.28,3.85s0,.01,0,.02l-1.43-1.43c-.2-.2-.51-.2-.71,0s-.2.51,0,.71l1.49,1.49s-.06.06-.1.08l-.15.08c-.85.43-1.38,1.28-1.38,2.24v5.26c0,1.1.9,2,2,2h.57c.76,0,1.45-.42,1.79-1.11l.58-1.16c1.52.17,3.04.26,4.56.26s3.04-.09,4.56-.26l.58,1.16c.34.68,1.03,1.1,1.79,1.1h.57c1.1,0,2-.9,2-2v-3.5c0-.28-.22-.5-.5-.5ZM5.97,19.95c-.17.34-.51.55-.89.55h-.57c-.55,0-1-.45-1-1v-1.14c.3.23.65.39,1.03.46.61.11,1.23.21,1.85.29l-.41.83ZM9.5,18.41v-1.41c0-.28.23-.5.5-.5h4c.28,0,.5.22.5.5v1.41c-1.67.1-3.34.1-5,0ZM19.5,20.5h-.57c-.38,0-.72-.21-.89-.55l-.42-.83c.62-.08,1.24-.18,1.85-.29.39-.07.74-.24,1.03-.46v1.14c0,.55-.45,1-1,1Z" style="fill: rgb(198, 198, 198);"/>
  <path class="cls-1" d="M19,2.5h-6c-1.38,0-2.5,1.12-2.5,2.5v7c0,1.38,1.12,2.5,2.5,2.5h6c1.38,0,2.5-1.12,2.5-2.5v-7c0-1.38-1.12-2.5-2.5-2.5ZM20.5,12c0,.83-.67,1.5-1.5,1.5h-6c-.83,0-1.5-.67-1.5-1.5v-7c0-.83.67-1.5,1.5-1.5h6c.83,0,1.5.67,1.5,1.5v7Z" style="fill: rgb(249, 157, 26);"/>
  <path class="cls-1" d="M14.65,5.65l-.65.65-.03-.03c-.2-.2-.51-.19-.71,0-.2.2-.2.51,0,.71l.38.38c.09.09.22.15.35.15s.26-.05.35-.15l1-1c.2-.2.2-.51,0-.71s-.51-.2-.71,0Z" style="fill: rgb(249, 157, 26);"/>
  <path class="cls-1" d="M19,6.5h-2c-.28,0-.5.22-.5.5s.22.5.5.5h2c.28,0,.5-.22.5-.5s-.22-.5-.5-.5Z" style="fill: rgb(249, 157, 26);"/>
  <path class="cls-1" d="M14.65,9.65l-.65.65-.03-.03c-.2-.2-.51-.19-.71,0-.2.2-.2.51,0,.71l.38.38c.09.09.22.15.35.15s.26-.05.35-.15l1-1c.2-.2.2-.51,0-.71s-.51-.2-.71,0Z" style="fill: rgb(249, 157, 26);"/>
  <path class="cls-1" d="M19,10.5h-2c-.28,0-.5.22-.5.5s.22.5.5.5h2c.28,0,.5-.22.5-.5s-.22-.5-.5-.5Z" style="fill: rgb(249, 157, 26);"/>
</svg>